<?xml version="1.0" ?><!DOCTYPE svg  PUBLIC '-//W3C//DTD SVG 1.1//EN'  'http://www.w3.org/Graphics/SVG/1.1/DTD/svg11.dtd'><svg enable-background="new 0 0 512 512" height="512px" id="Layer_1" version="1.1" viewBox="0 0 512 512" width="512px" xml:space="preserve" xmlns="http://www.w3.org/2000/svg" xmlns:xlink="http://www.w3.org/1999/xlink"><path d="M492.668,442.732c0,34.171-27.702,61.872-61.873,61.872H81.052c-34.171,0-61.875-27.701-61.875-61.872  V92.987c0-34.171,27.704-61.873,61.875-61.873h349.743c34.171,0,61.873,27.701,61.873,61.873V442.732z" fill="#AF5009"/><path d="M492.668,417.988c0,34.172-27.702,61.873-61.873,61.873H81.052c-34.171,0-61.875-27.701-61.875-61.873  V68.243c0-34.171,27.704-61.872,61.875-61.872h349.743c34.171,0,61.873,27.7,61.873,61.872V417.988z" fill="#FFA053"/><path d="M492.668,417.989v-30.405L221,115.917c-0.007-0.037-0.062-0.064-0.065-0.064l-1.952-1.952  c-0.012-0.028-0.027-0.048-0.048-0.048c-3.306,0-6.613,0-9.92,0c-11.824,0-23.648,0-35.473,0c-1.206,0-2.412,0-3.618,0  c-0.278,0-0.178,0.153-0.178,0.415c0,1.66,0,3.32,0,4.979c0,7.875,0,15.75,0,23.626c0,11.823,0,23.646,0,35.47  c0,13.221,0,26.44,0,39.66c0,12.066,0,24.132,0,36.197c0,8.36,0,16.72,0,25.081c0,7.135,0.003,14.197,1.198,21.279  c1.753,10.396,5.449,20.439,10.834,29.502c2.645,4.449,5.69,8.66,9.084,12.568c3.647,4.197,7.706,8.068,11.667,11.965  c8.263,8.396,16.604,16.738,25,25c8.263,8.396,16.604,16.738,25,25c8.263,8.396,16.603,16.738,25,25  c8.264,8.396,16.604,16.738,25,25c8.264,8.396,16.604,16.738,25,25c0.088,0.09,0.177,0.177,0.265,0.266h103.001  C464.966,479.861,492.668,452.16,492.668,417.989z" fill="#DD690A"/><path d="M255.922,372.379c-47.51,0-86.176-38.664-86.176-86.178V113.853h49.242v172.348  c0,20.371,16.566,36.938,36.934,36.938c20.365,0,36.932-16.566,36.932-36.938c0-20.369-16.566-36.919-36.932-36.919h-24.627v-49.245  h24.627c47.508,0,86.176,38.661,86.176,86.165C342.098,333.715,303.43,372.379,255.922,372.379z" fill="#FFFFFF" id="Yahoo_x21__Buzz_3_"/></svg>